<svg xmlns="http://www.w3.org/2000/svg" width="208" height="208">
    <path fill="#56534C" fill-rule="evenodd" d="M77 60.002c-8.837 0-16-7.164-16-16.001 0-8.835 7.163-16 16-16s16 7.165 16 16c0 8.837-7.163 16.001-16 16.001zm0-30c-7.732 0-14 6.268-14 13.999 0 7.733 6.268 14.001 14 14.001s14-6.268 14-14.001c0-7.731-6.268-13.999-14-13.999zm3.799 14.475c-.013.013-.032.017-.046.029l-5.569 5.304a.719.719 0 0 1-.983 0 .639.639 0 0 1 0-.936l5.116-4.873-5.116-4.872a.64.64 0 0 1 0-.937.719.719 0 0 1 .983 0l5.571 5.306c.014.011.031.015.044.028a.636.636 0 0 1 .202.475.638.638 0 0 1-.202.476z"/>
</svg>
