<svg xmlns="http://www.w3.org/2000/svg" width="208" height="208">
    <path fill="#D8BBA3" fill-rule="evenodd" d="M77 59.998c-8.837 0-16-7.164-16-16 0-8.837 7.163-16 16-16 8.836 0 16 7.163 16 16 0 8.836-7.164 16-16 16zm0-30.001c-7.732 0-14 6.268-14 14.001 0 7.732 6.268 13.999 14 13.999s14-6.267 14-13.999c0-7.733-6.268-14.001-14-14.001zm2.799 19.81a.719.719 0 0 1-.983 0l-5.57-5.305c-.014-.011-.032-.016-.045-.028a.643.643 0 0 1-.203-.476.64.64 0 0 1 .203-.475c.013-.013.032-.018.046-.03l5.569-5.303a.717.717 0 0 1 .983 0 .639.639 0 0 1 0 .936l-5.116 4.872 5.116 4.873a.639.639 0 0 1 0 .936z"/>
</svg>
