<svg xmlns="http://www.w3.org/2000/svg" width="192" height="145pt">
    <path fill="#FFF" fill-rule="evenodd" d="M80.953 36.732a.64.64 0 0 1-.153.22l-4.703 4.702 1.767 6.534c.012.044.006.086.008.129.004.034.009.066.006.101-.002.028-.011.054-.018.082a.524.524 0 0 1-.051.147c-.019.038-.047.069-.073.102-.017.019-.024.042-.044.06-.006.005-.014.007-.02.012a.634.634 0 0 1-.188.117l-.01.005c-.024.01-.043.027-.069.034-.057.015-.113.011-.17.01l-.004.001a.637.637 0 0 1-.2-.035.678.678 0 0 1-.068-.023.627.627 0 0 1-.105-.064c-.027-.018-.058-.028-.083-.051L71 44.715l-5.775 4.1c-.025.023-.056.033-.084.051a.58.58 0 0 1-.104.064.678.678 0 0 1-.068.023.642.642 0 0 1-.2.035l-.004-.001c-.057.001-.113.005-.17-.01-.026-.007-.045-.024-.069-.034l-.01-.005a.652.652 0 0 1-.189-.117c-.006-.005-.014-.007-.02-.012-.019-.018-.026-.041-.043-.06-.026-.033-.054-.064-.074-.102a.596.596 0 0 1-.051-.147c-.006-.028-.015-.054-.018-.082-.002-.035.003-.067.007-.101.002-.043-.004-.085.008-.129l1.766-6.534-4.702-4.702a.615.615 0 0 1-.153-.22.619.619 0 0 1 .585-.858h5.264l3.563-6.578c.006-.011.018-.017.025-.027.022-.033.051-.06.08-.089a.672.672 0 0 1 .096-.082c.011-.007.017-.017.027-.023.023-.013.048-.013.071-.023a.61.61 0 0 1 .125-.041.651.651 0 0 1 .117-.008c.04 0 .077.001.117.008a.61.61 0 0 1 .125.041c.023.01.048.01.07.023.011.006.017.016.027.023a.578.578 0 0 1 .096.082c.03.029.059.056.081.089.007.01.019.016.025.027l3.563 6.578h5.264a.615.615 0 0 1 .585.858zm-6.123.391h-.08c-.011 0-.02-.006-.031-.006a.622.622 0 0 1-.196-.04c-.014-.005-.025-.012-.039-.018a.617.617 0 0 1-.164-.111l-.026-.028c-.029-.031-.063-.056-.085-.094L71 30.902l-3.209 5.924c-.022.038-.057.063-.086.094a.606.606 0 0 1-.19.139c-.013.006-.025.013-.038.018a.622.622 0 0 1-.196.04c-.011 0-.02.006-.031.006h-4.123l3.944 3.943c.013.014.018.032.03.046a.637.637 0 0 1 .093.139c.009.021.014.042.021.063a.595.595 0 0 1 .036.182l-.002.027c0 .054.005.107-.01.161l-1.403 5.187 4.669-3.315a.662.662 0 0 1 .495-.165.663.663 0 0 1 .495.165l4.668 3.315-1.402-5.187c-.015-.054-.01-.107-.01-.161a.245.245 0 0 1-.002-.027.625.625 0 0 1 .035-.182c.007-.021.013-.042.022-.063a.637.637 0 0 1 .093-.139c.012-.014.016-.032.03-.046l3.944-3.943H74.83z"/>
</svg>
