<svg xmlns="http://www.w3.org/2000/svg" width="308" height="184">
    <path fill="#C9B176" fill-rule="evenodd" d="M68 28.604l2.078 4.211 4.647.675-3.363 3.278.795 4.628L68 39.21l-4.156 2.186.794-4.628-3.363-3.278 4.647-.675L68 28.604zM91 28.604l2.078 4.211 4.647.675-3.362 3.278.793 4.628L91 39.21l-4.156 2.186.794-4.628-3.363-3.278 4.647-.675L91 28.604zM115 28.604l2.078 4.211 4.647.675-3.362 3.278.794 4.628L115 39.21l-4.156 2.186.794-4.628-3.363-3.278 4.647-.675L115 28.604zM138 28.604l2.078 4.211 4.647.675-3.363 3.278.794 4.628L138 39.21l-4.156 2.186.794-4.628-3.363-3.278 4.647-.675L138 28.604z"/>
    <path fill="#56534C" fill-rule="evenodd" d="M161 28.604l2.078 4.211 4.647.675-3.362 3.278.794 4.628L161 39.21l-4.156 2.186.794-4.628-3.363-3.278 4.647-.675L161 28.604z"/>
</svg>
